/* XPM */
static char *_0333_bac396779eaa673aa5273db084d6effb9c1adca2e05206b18c0b16b4b278f942[] = {
/* columns rows colors chars-per-pixel */
"32 32 58 1 ",
"  c black",
". c #050000",
"X c #060000",
"o c #0A0000",
"O c #120000",
"+ c #180000",
"@ c #1A0000",
"# c #1F0000",
"$ c #290000",
"% c #2D0000",
"& c #2E0000",
"* c #2F0000",
"= c #300000",
"- c #310000",
"; c #320000",
": c #340000",
"> c #410000",
", c #460000",
"< c #470000",
"1 c #490000",
"2 c #530000",
"3 c #550000",
"4 c #560000",
"5 c #5F0000",
"6 c #6E0000",
"7 c #730000",
"8 c #7A0000",
"9 c #7E0000",
"0 c #830000",
"q c #880000",
"w c #8A0000",
"e c #8B0000",
"r c #920000",
"t c #960000",
"y c #980000",
"u c #9A0000",
"i c #9B0000",
"p c #9C0000",
"a c #9D0000",
"s c #A50000",
"d c #B40000",
"f c #B70000",
"g c #B90000",
"h c #BC0000",
"j c #BD0000",
"k c #CC0000",
"l c #DB0000",
"z c #E10000",
"x c #E30000",
"c c #E50000",
"v c #E60000",
"b c #E70000",
"n c #EB0000",
"m c #EE0000",
"M c #F80000",
"N c #FA0000",
"B c #FE0000",
"V c red",
/* pixels */
"VVVVVVVVVVVVVVVVVVVVVVVVVVVVVVVV",
"VVVVVVVVVVVVVVVVVVVVVVVVVVVVVVVV",
"VVVVVVVVVVVVVVVVVVVVVVVVVVVVVVVV",
"VVVVVVVVVVVVVVVVVVVVVVVVVVVVVVVV",
"VVVVVVVVVVVVVVVVVVVVVVVVVVVVVVVV",
"VVVVVVVVVVVVVVVVVVVVVVVVVVVVVVVV",
"VVVVVVv#rVVVVVVVVVVVVVVVVVVVVVVV",
"VVVVVVb   <gVVVVVVVVVVVVVVVVVVVV",
"VVVVVVb     X6zVVVVVVVVVVVVVVVVV",
"VVVVVVb        &tVVVVVVVVVVVVVVV",
"VVVVVVb           4jVVVVVVVVVVVV",
"VVVVVVb             @9cVVVVVVVVV",
"VVVVVVVe;              >sVVVVVVV",
"VVVVVVVVVnw=             .MVVVVV",
"VVVVVVVVVVVVBq*           MVVVVV",
"VVVVVVVVVVVVVVVVi%        MVVVVV",
"VVVVVVVVVVVVVVVVVVVu+     MVVVVV",
"VVVVVVVVVVVVVVVVk5        MVVVVV",
"VVVVVVVVVVVVVd2           MVVVVV",
"VVVVVVVVVmp,             OMVVVVV",
"VVVVVVV0-              3fVVVVVVV",
"VVVVVVx             :yNVVVVVVVVV",
"VVVVVVx          o8lVVVVVVVVVVVV",
"VVVVVVx        2jVVVVVVVVVVVVVVV",
"VVVVVVx     $aVVVVVVVVVVVVVVVVVV",
"VVVVVVx   7zVVVVVVVVVVVVVVVVVVVV",
"VVVVVVx1hVVVVVVVVVVVVVVVVVVVVVVV",
"VVVVVVVVVVVVVVVVVVVVVVVVVVVVVVVV",
"VVVVVVVVVVVVVVVVVVVVVVVVVVVVVVVV",
"VVVVVVVVVVVVVVVVVVVVVVVVVVVVVVVV",
"VVVVVVVVVVVVVVVVVVVVVVVVVVVVVVVV",
"VVVVVVVVVVVVVVVVVVVVVVVVVVVVVVVV"
};
