/* XPM */
static char *_5136_602f53aafee430a7cb563f57a2a0c75d331dd3aca8c6db014e7b00a1a6c8d6d0[] = {
/* columns rows colors chars-per-pixel */
"32 32 58 1 ",
"  c black",
". c #050000",
"X c #060000",
"o c #0A0000",
"O c #120000",
"+ c #180000",
"@ c #1A0000",
"# c #1F0000",
"$ c #290000",
"% c #2D0000",
"& c #2E0000",
"* c #2F0000",
"= c #300000",
"- c #310000",
"; c #320000",
": c #340000",
"> c #410000",
", c #460000",
"< c #470000",
"1 c #490000",
"2 c #530000",
"3 c #550000",
"4 c #560000",
"5 c #5F0000",
"6 c #6E0000",
"7 c #730000",
"8 c #7A0000",
"9 c #7E0000",
"0 c #830000",
"q c #880000",
"w c #8A0000",
"e c #8B0000",
"r c #920000",
"t c #960000",
"y c #980000",
"u c #9A0000",
"i c #9B0000",
"p c #9C0000",
"a c #9D0000",
"s c #A50000",
"d c #B40000",
"f c #B70000",
"g c #B90000",
"h c #BC0000",
"j c #BD0000",
"k c #CC0000",
"l c #DB0000",
"z c #E10000",
"x c #E30000",
"c c #E50000",
"v c #E60000",
"b c #E70000",
"n c #EB0000",
"m c #EE0000",
"M c #F80000",
"N c #FA0000",
"B c #FE0000",
"V c red",
/* pixels */
"VVVVVVVVVVVVVVVVVVVVVVVVVVVVVVVV",
"VVVVVVVVVVVVVVVVVVVVVVVVVVVVVVVV",
"VVVVVVVVVVVVVVVVVVVVVVVVVVVVVVVV",
"VVVVVVVVVVVVVVVVVVVVVVVVVVVVVVVV",
"VVVVVVVVVVVVVVVVVVVVVVVVVVVVVVVV",
"VVVVVVVVVVVVVVVVVVVVVVVVVVVVVVVV",
"VVVVVVvbbbbbVVVVVVVVVxxxxxxVVVVV",
"VVVVVV#     eVVVVVVV0     1VVVVV",
"VVVVVVr     ;VVVVVVV-     hVVVVV",
"VVVVVVV      nVVVVVm      VVVVVV",
"VVVVVVV<     wVVVVVp     7VVVVVV",
"VVVVVVVg     =VVVVV,     zVVVVVV",
"VVVVVVVVX     BVVVV     $VVVVVVV",
"VVVVVVVV6     qVVVd     aVVVVVVV",
"VVVVVVVVz     *VVV2     VVVVVVVV",
"VVVVVVVVV&     VVV     2VVVVVVVV",
"VVVVVVVVVt     iVk     jVVVVVVVV",
"VVVVVVVVVV     %V5    oVVVVVVVVV",
"VVVVVVVVVV4     V     8VVVVVVVVV",
"VVVVVVVVVVj     u     lVVVVVVVVV",
"VVVVVVVVVVV@    +    :VVVVVVVVVV",
"VVVVVVVVVVV9         yVVVVVVVVVV",
"VVVVVVVVVVVc         NVVVVVVVVVV",
"VVVVVVVVVVVV>       3VVVVVVVVVVV",
"VVVVVVVVVVVVs       fVVVVVVVVVVV",
"VVVVVVVVVVVVV.     OVVVVVVVVVVVV",
"VVVVVVVVVVVVVMMMMMMMVVVVVVVVVVVV",
"VVVVVVVVVVVVVVVVVVVVVVVVVVVVVVVV",
"VVVVVVVVVVVVVVVVVVVVVVVVVVVVVVVV",
"VVVVVVVVVVVVVVVVVVVVVVVVVVVVVVVV",
"VVVVVVVVVVVVVVVVVVVVVVVVVVVVVVVV",
"VVVVVVVVVVVVVVVVVVVVVVVVVVVVVVVV"
};
